<?xml version="1.0" encoding="UTF-8" standalone="no"?>
<svg xmlns="http://www.w3.org/2000/svg" width="200" height="80" viewBox="0 0 200 80" fill="none">
  <path d="M59.5 40.5C59.5 46.5 56.5 51 50 51C43.5 51 40.5 46.5 40.5 40.5C40.5 34.5 43.5 30 50 30C56.5 30 59.5 34.5 59.5 40.5Z" fill="#5B6FB5"/>
  <path d="M79.5 40.5C79.5 46.5 76.5 51 70 51C63.5 51 60.5 46.5 60.5 40.5C60.5 34.5 63.5 30 70 30C76.5 30 79.5 34.5 79.5 40.5Z" fill="#5B6FB5"/>
  <path d="M99.5 40.5C99.5 46.5 96.5 51 90 51C83.5 51 80.5 46.5 80.5 40.5C80.5 34.5 83.5 30 90 30C96.5 30 99.5 34.5 99.5 40.5Z" fill="#5B6FB5"/>
  <path d="M40 10V30M40 51V70M60 10V30M60 51V70M80 10V30M80 51V70" stroke="#5B6FB5" stroke-width="4"/>
  <circle cx="120" cy="40" r="6" fill="#5B6FB5"/>
</svg>
